<svg width="30" height="30" viewBox="0 0 30 30" fill="none" xmlns="http://www.w3.org/2000/svg">
<g clip-path="url(#clip0_2_353)">
<path d="M15 7.5C14.0111 7.5 13.0444 7.79324 12.2222 8.34265C11.3999 8.89206 10.759 9.67295 10.3806 10.5866C10.0022 11.5002 9.90315 12.5055 10.0961 13.4755C10.289 14.4454 10.7652 15.3363 11.4645 16.0355C12.1637 16.7348 13.0546 17.211 14.0246 17.4039C14.9945 17.5969 15.9998 17.4978 16.9134 17.1194C17.8271 16.741 18.6079 16.1001 19.1574 15.2779C19.7068 14.4556 20 13.4889 20 12.5C20 11.1739 19.4732 9.90215 18.5355 8.96447C17.5979 8.02678 16.3261 7.5 15 7.5ZM15 15C14.5055 15 14.0222 14.8534 13.6111 14.5787C13.2 14.304 12.8795 13.9135 12.6903 13.4567C12.5011 12.9999 12.4516 12.4972 12.548 12.0123C12.6445 11.5273 12.8826 11.0819 13.2322 10.7322C13.5819 10.3826 14.0273 10.1445 14.5123 10.048C14.9972 9.95157 15.4999 10.0011 15.9567 10.1903C16.4135 10.3795 16.804 10.7 17.0787 11.1111C17.3534 11.5222 17.5 12.0055 17.5 12.5C17.5 13.163 17.2366 13.7989 16.7678 14.2678C16.2989 14.7366 15.663 15 15 15Z" fill="#1A67AE"/>
<path d="M15 30.0001C13.9475 30.0055 12.9089 29.7586 11.9714 29.2801C11.0338 28.8017 10.2245 28.1056 9.61128 27.2501C4.84752 20.6788 2.43127 15.7388 2.43127 12.5663C2.43127 9.23287 3.75548 6.03596 6.11258 3.67886C8.46967 1.32176 11.6666 -0.00244141 15 -0.00244141C18.3335 -0.00244141 21.5304 1.32176 23.8875 3.67886C26.2446 6.03596 27.5688 9.23287 27.5688 12.5663C27.5688 15.7388 25.1525 20.6788 20.3888 27.2501C19.7755 28.1056 18.9663 28.8017 18.0287 29.2801C17.0911 29.7586 16.0526 30.0055 15 30.0001ZM15 2.72631C12.3905 2.72929 9.8888 3.76722 8.04361 5.6124C6.19843 7.45758 5.1605 9.95933 5.15752 12.5688C5.15752 15.0813 7.52377 19.7276 11.8188 25.6513C12.1834 26.1535 12.6617 26.5623 13.2147 26.8441C13.7676 27.126 14.3794 27.2729 15 27.2729C15.6206 27.2729 16.2325 27.126 16.7854 26.8441C17.3383 26.5623 17.8167 26.1535 18.1813 25.6513C22.4763 19.7276 24.8425 15.0813 24.8425 12.5688C24.8396 9.95933 23.8016 7.45758 21.9564 5.6124C20.1113 3.76722 17.6095 2.72929 15 2.72631Z" fill="#1A67AE"/>
</g>
<defs>
<clipPath id="clip0_2_353">
<rect width="30" height="30" fill="white"/>
</clipPath>
</defs>
</svg>
