<svg width="30" height="30" viewBox="0 0 30 30" fill="none" xmlns="http://www.w3.org/2000/svg">
<g clip-path="url(#clip0_2_489)">
<path d="M29.0887 11.7738C27.1499 8.61635 22.7399 3.31885 14.9999 3.31885C7.25994 3.31885 2.84994 8.61635 0.911192 11.7738C0.311852 12.7432 -0.00561523 13.8604 -0.00561523 15.0001C-0.00561523 16.1398 0.311852 17.257 0.911192 18.2263C2.84994 21.3838 7.25994 26.6813 14.9999 26.6813C22.7399 26.6813 27.1499 21.3838 29.0887 18.2263C29.688 17.257 30.0055 16.1398 30.0055 15.0001C30.0055 13.8604 29.688 12.7432 29.0887 11.7738ZM26.9574 16.9176C25.2924 19.6251 21.5237 24.1813 14.9999 24.1813C8.47619 24.1813 4.70744 19.6251 3.04244 16.9176C2.68636 16.3414 2.49776 15.6774 2.49776 15.0001C2.49776 14.3228 2.68636 13.6588 3.04244 13.0826C4.70744 10.3751 8.47619 5.81885 14.9999 5.81885C21.5237 5.81885 25.2924 10.3701 26.9574 13.0826C27.3135 13.6588 27.5021 14.3228 27.5021 15.0001C27.5021 15.6774 27.3135 16.3414 26.9574 16.9176Z" fill="#1A67AE"/>
<path d="M15 8.75C13.7639 8.75 12.5555 9.11656 11.5277 9.80331C10.4999 10.4901 9.6988 11.4662 9.22576 12.6082C8.75271 13.7503 8.62894 15.0069 8.87009 16.2193C9.11125 17.4317 9.70651 18.5453 10.5806 19.4194C11.4547 20.2935 12.5683 20.8888 13.7807 21.1299C14.9931 21.3711 16.2497 21.2473 17.3918 20.7742C18.5338 20.3012 19.5099 19.5001 20.1967 18.4723C20.8834 17.4445 21.25 16.2361 21.25 15C21.248 13.343 20.5889 11.7544 19.4172 10.5828C18.2456 9.4111 16.657 8.75198 15 8.75ZM15 18.75C14.2583 18.75 13.5333 18.5301 12.9166 18.118C12.2999 17.706 11.8193 17.1203 11.5355 16.4351C11.2516 15.7498 11.1774 14.9958 11.3221 14.2684C11.4668 13.541 11.8239 12.8728 12.3484 12.3483C12.8728 11.8239 13.541 11.4667 14.2684 11.3221C14.9958 11.1774 15.7498 11.2516 16.4351 11.5355C17.1203 11.8193 17.706 12.2999 18.118 12.9166C18.5301 13.5333 18.75 14.2583 18.75 15C18.75 15.9946 18.3549 16.9484 17.6517 17.6517C16.9484 18.3549 15.9946 18.75 15 18.75Z" fill="#1A67AE"/>
</g>
<defs>
<clipPath id="clip0_2_489">
<rect width="30" height="30" fill="white"/>
</clipPath>
</defs>
</svg>
