<svg width="30" height="30" viewBox="0 0 30 30" fill="none" xmlns="http://www.w3.org/2000/svg">
<g clip-path="url(#clip0_2_351)">
<path d="M28.6875 12C28.4531 11.7656 28.1352 11.634 27.8037 11.634C27.4723 11.634 27.1544 11.7656 26.92 12L13.305 25.6737C12.7246 26.2542 12.0356 26.7146 11.2773 27.0288C10.519 27.343 9.70622 27.5047 8.88541 27.5047C7.22771 27.5049 5.63785 26.8465 4.46559 25.6744C3.29334 24.5023 2.6347 22.9125 2.63459 21.2548C2.63447 19.5971 3.29288 18.0072 4.46497 16.835L17.6512 3.59499C18.3563 2.9011 19.3071 2.51395 20.2963 2.51786C21.2856 2.52177 22.2332 2.91643 22.9328 3.61587C23.6324 4.31531 24.0273 5.26286 24.0315 6.25212C24.0356 7.24139 23.6487 8.19221 22.955 8.89749L9.76872 22.1375C9.53091 22.3653 9.2143 22.4925 8.88497 22.4925C8.55564 22.4925 8.23903 22.3653 8.00122 22.1375C7.76688 21.9031 7.63524 21.5852 7.63524 21.2537C7.63524 20.9223 7.76688 20.6044 8.00122 20.37L19.7412 8.57624C19.9689 8.34048 20.0949 8.02473 20.0921 7.69699C20.0892 7.36924 19.9578 7.05572 19.726 6.82396C19.4942 6.5922 19.1807 6.46074 18.853 6.4579C18.5252 6.45505 18.2095 6.58104 17.9737 6.80874L6.23372 18.6025C5.88543 18.9507 5.60915 19.3641 5.42066 19.8192C5.23216 20.2742 5.13514 20.7619 5.13514 21.2544C5.13514 21.7469 5.23216 22.2346 5.42066 22.6896C5.60915 23.1446 5.88543 23.558 6.23372 23.9062C6.94824 24.5881 7.89794 24.9685 8.88559 24.9685C9.87324 24.9685 10.8229 24.5881 11.5375 23.9062L24.7225 10.665C25.87 9.48787 26.5075 7.90605 26.497 6.2622C26.4864 4.61835 25.8287 3.04484 24.6662 1.88252C23.5037 0.720197 21.9301 0.0626689 20.2863 0.0523689C18.6424 0.042069 17.0607 0.679826 15.8837 1.82749L2.69747 15.0675C1.05644 16.7085 0.134521 18.9342 0.134521 21.255C0.134522 23.5758 1.05644 25.8015 2.69747 27.4425C4.3385 29.0835 6.56421 30.0054 8.88497 30.0054C11.2057 30.0054 13.4314 29.0835 15.0725 27.4425L28.6875 13.7725C28.8043 13.6563 28.8969 13.5182 28.9602 13.3661C29.0234 13.214 29.056 13.051 29.056 12.8862C29.056 12.7215 29.0234 12.5584 28.9602 12.4063C28.8969 12.2542 28.8043 12.1161 28.6875 12Z" fill="#1A67AE"/>
</g>
<defs>
<clipPath id="clip0_2_351">
<rect width="30" height="30" fill="white"/>
</clipPath>
</defs>
</svg>
