<svg xmlns="http://www.w3.org/2000/svg" xmlns:xlink="http://www.w3.org/1999/xlink" width="377" zoomAndPan="magnify" viewBox="0 0 283.5 141.749996" height="188" preserveAspectRatio="xMidYMid meet" version="1.0"><defs><g/><clipPath id="f6445d6189"><path d="M 35 51.902344 L 53 51.902344 L 53 68 L 35 68 Z M 35 51.902344 " clip-rule="nonzero"/></clipPath><clipPath id="97f0daf4ca"><path d="M 28.074219 61 L 59.632812 61 L 59.632812 92.4375 L 28.074219 92.4375 Z M 28.074219 61 " clip-rule="nonzero"/></clipPath><clipPath id="9358345666"><path d="M 38 61 L 59.632812 61 L 59.632812 84 L 38 84 Z M 38 61 " clip-rule="nonzero"/></clipPath></defs><g fill="#0e1543" fill-opacity="1"><g transform="translate(69.396053, 84.578741)"><g><path d="M 11.160156 0.320312 C 17.789062 0.320312 21.46875 -2.296875 21.46875 -7.015625 L 21.46875 -15.304688 L 14.667969 -15.304688 L 14.667969 -7.4375 C 14.667969 -5.441406 13.414062 -4.464844 11.160156 -4.464844 C 8.90625 -4.464844 7.652344 -5.441406 7.652344 -7.4375 L 7.652344 -15.304688 L 0.851562 -15.304688 L 0.851562 -7.015625 C 0.851562 -2.296875 4.527344 0.320312 11.160156 0.320312 Z M 11.160156 0.320312 "/></g></g></g><g fill="#0e1543" fill-opacity="1"><g transform="translate(91.708958, 84.578741)"><g><path d="M 11.519531 -11.371094 C 9.5 -11.371094 7.609375 -10.203125 6.800781 -8.351562 L 6.78125 -8.351562 L 5.953125 -11.054688 L 0.851562 -11.054688 L 0.851562 0 L 7.015625 0 L 7.015625 -5.121094 C 7.015625 -6.78125 7.671875 -7.863281 8.671875 -7.863281 C 9.523438 -7.863281 10.117188 -6.78125 10.160156 -5.144531 L 15.8125 -6.164062 C 15.6875 -9.308594 13.984375 -11.371094 11.519531 -11.371094 Z M 11.519531 -11.371094 "/></g></g></g><g fill="#0e1543" fill-opacity="1"><g transform="translate(107.625497, 84.578741)"><g><path d="M 12.878906 0.320312 C 16.535156 0.320312 18.917969 -1.996094 18.917969 -5.527344 C 18.917969 -9.054688 16.535156 -11.371094 12.878906 -11.371094 C 10.160156 -11.371094 7.863281 -10.054688 7.035156 -8.054688 L 7.015625 -8.054688 L 7.015625 -15.941406 L 0.851562 -15.941406 L 0.851562 0 L 6.164062 0 L 6.992188 -3.019531 L 7.015625 -3.019531 C 7.84375 -1 10.160156 0.320312 12.878906 0.320312 Z M 9.777344 -3.613281 C 7.972656 -3.613281 6.800781 -4.378906 6.800781 -5.527344 C 6.800781 -6.675781 7.972656 -7.4375 9.777344 -7.4375 C 11.585938 -7.4375 12.753906 -6.675781 12.753906 -5.527344 C 12.753906 -4.378906 11.585938 -3.613281 9.777344 -3.613281 Z M 9.777344 -3.613281 "/></g></g></g><g fill="#0e1543" fill-opacity="1"><g transform="translate(126.963347, 84.578741)"><g><path d="M 5.910156 0.320312 C 8.96875 0.320312 11.351562 -0.765625 12.347656 -2.570312 L 12.371094 -2.570312 L 12.390625 -2.445312 C 12.691406 -0.703125 14.453125 0.320312 17.175781 0.320312 C 19.042969 0.320312 20.660156 -0.0625 21.53125 -0.703125 L 20.640625 -3.316406 C 20.257812 -3.125 19.808594 -2.996094 19.425781 -2.996094 C 18.789062 -2.996094 18.429688 -3.316406 18.429688 -3.824219 L 18.429688 -7.035156 C 18.429688 -9.757812 15.238281 -11.371094 9.882812 -11.371094 C 6.355469 -11.371094 2.828125 -10.542969 0.402344 -9.140625 L 1.808594 -6.035156 C 4.273438 -7.375 7.269531 -8.183594 9.882812 -8.183594 C 11.433594 -8.183594 12.347656 -7.972656 12.347656 -7.609375 C 12.347656 -7.460938 12.09375 -7.332031 11.691406 -7.289062 L 7.84375 -6.90625 C 3.1875 -6.441406 0.425781 -4.867188 0.425781 -2.65625 C 0.425781 -0.785156 2.464844 0.320312 5.910156 0.320312 Z M 8.246094 -3.1875 C 7.207031 -3.1875 6.589844 -3.378906 6.589844 -3.71875 C 6.589844 -4.058594 7.183594 -4.316406 8.246094 -4.398438 L 12.265625 -4.78125 L 12.265625 -4.761719 C 12.265625 -3.785156 10.777344 -3.1875 8.246094 -3.1875 Z M 8.246094 -3.1875 "/></g></g></g><g fill="#0e1543" fill-opacity="1"><g transform="translate(148.596235, 84.578741)"><g><path d="M 12.582031 -11.371094 C 9.839844 -11.371094 7.84375 -10.140625 6.800781 -8.269531 L 6.78125 -8.269531 L 6.144531 -11.054688 L 0.851562 -11.054688 L 0.851562 0 L 6.992188 0 L 6.992188 -5.3125 C 6.992188 -7.058594 7.992188 -8.078125 9.609375 -8.078125 C 11.09375 -8.078125 11.925781 -7.207031 11.925781 -5.738281 L 11.925781 0 L 18.066406 0 L 18.089844 -6.375 C 18.109375 -9.4375 15.921875 -11.371094 12.582031 -11.371094 Z M 12.582031 -11.371094 "/></g></g></g><g fill="#0e1543" fill-opacity="1"><g transform="translate(167.317824, 84.578741)"><g><path d="M 6.609375 0 L 14.050781 0 L 18.300781 -10.179688 L 18.34375 -10.179688 L 22.550781 0 L 29.992188 0 L 36.601562 -15.304688 L 29.777344 -15.304688 L 26.015625 -5.101562 L 25.972656 -5.101562 L 21.914062 -15.304688 L 14.6875 -15.304688 L 10.691406 -5.101562 L 10.648438 -5.101562 L 6.824219 -15.304688 L -0.0195312 -15.304688 Z M 6.609375 0 "/></g></g></g><g fill="#0e1543" fill-opacity="1"><g transform="translate(203.910981, 84.578741)"><g><path d="M 9.566406 0.320312 C 15.089844 0.320312 18.703125 -1.996094 18.703125 -5.527344 C 18.703125 -9.054688 15.089844 -11.371094 9.566406 -11.371094 C 4.039062 -11.371094 0.425781 -9.054688 0.425781 -5.527344 C 0.425781 -1.996094 4.039062 0.320312 9.566406 0.320312 Z M 9.566406 -3.082031 C 7.757812 -3.082031 6.589844 -4.058594 6.589844 -5.527344 C 6.589844 -6.992188 7.757812 -7.972656 9.566406 -7.972656 C 11.371094 -7.972656 12.539062 -6.992188 12.539062 -5.527344 C 12.539062 -4.058594 11.371094 -3.082031 9.566406 -3.082031 Z M 9.566406 -3.082031 "/></g></g></g><g fill="#0e1543" fill-opacity="1"><g transform="translate(223.036326, 84.578741)"><g><path d="M 9.566406 0.320312 C 15.089844 0.320312 18.703125 -1.996094 18.703125 -5.527344 C 18.703125 -9.054688 15.089844 -11.371094 9.566406 -11.371094 C 4.039062 -11.371094 0.425781 -9.054688 0.425781 -5.527344 C 0.425781 -1.996094 4.039062 0.320312 9.566406 0.320312 Z M 9.566406 -3.082031 C 7.757812 -3.082031 6.589844 -4.058594 6.589844 -5.527344 C 6.589844 -6.992188 7.757812 -7.972656 9.566406 -7.972656 C 11.371094 -7.972656 12.539062 -6.992188 12.539062 -5.527344 C 12.539062 -4.058594 11.371094 -3.082031 9.566406 -3.082031 Z M 9.566406 -3.082031 "/></g></g></g><g fill="#0e1543" fill-opacity="1"><g transform="translate(242.161661, 84.578741)"><g><path d="M 6.460938 0.320312 C 9.183594 0.320312 11.5 -1 12.328125 -3.019531 L 12.347656 -3.019531 L 13.179688 0 L 18.492188 0 L 18.492188 -15.941406 L 12.328125 -15.941406 L 12.328125 -8.054688 L 12.308594 -8.054688 C 11.476562 -10.054688 9.183594 -11.371094 6.460938 -11.371094 C 2.804688 -11.371094 0.425781 -9.054688 0.425781 -5.527344 C 0.425781 -1.996094 2.804688 0.320312 6.460938 0.320312 Z M 9.566406 -3.613281 C 7.757812 -3.613281 6.589844 -4.378906 6.589844 -5.527344 C 6.589844 -6.675781 7.757812 -7.4375 9.566406 -7.4375 C 11.371094 -7.4375 12.539062 -6.675781 12.539062 -5.527344 C 12.539062 -4.378906 11.371094 -3.613281 9.566406 -3.613281 Z M 9.566406 -3.613281 "/></g></g></g><g clip-path="url(#f6445d6189)"><path fill="#fda911" d="M 52.382812 60.492188 L 52.382812 61.835938 L 49.386719 61.835938 L 49.386719 60.492188 C 49.386719 57.421875 46.890625 54.921875 43.8125 54.921875 C 40.746094 54.921875 38.25 57.421875 38.25 60.492188 L 38.25 67.46875 L 35.253906 67.46875 L 35.253906 60.492188 C 35.253906 55.761719 39.089844 51.917969 43.8125 51.917969 C 48.539062 51.917969 52.382812 55.761719 52.382812 60.492188 Z M 52.382812 60.492188 " fill-opacity="1" fill-rule="nonzero"/></g><g clip-path="url(#97f0daf4ca)"><path fill="#fda911" d="M 59.582031 89.460938 L 59.582031 92.460938 L 28.054688 92.460938 L 28.054688 61.835938 L 35.253906 61.835938 L 35.253906 64.835938 L 31.050781 64.835938 L 31.050781 89.460938 Z M 59.582031 89.460938 " fill-opacity="1" fill-rule="nonzero"/></g><g clip-path="url(#9358345666)"><path fill="#fda911" d="M 59.582031 61.835938 L 59.582031 83.90625 L 48.339844 83.90625 L 41.277344 77.304688 L 41.277344 83.027344 L 38.28125 83.027344 L 38.28125 72.351562 L 48.925781 72.351562 L 48.925781 75.351562 L 43.574219 75.351562 L 49.515625 80.90625 L 56.585938 80.90625 L 56.585938 64.835938 L 40.976562 64.835938 L 40.976562 61.835938 Z M 59.582031 61.835938 " fill-opacity="1" fill-rule="nonzero"/></g><path stroke-linecap="butt" transform="matrix(2.162218, 0, 0, 2.165923, 20.597715, 97.373127)" fill="none" stroke-linejoin="miter" d="M -0.000027109 0.000864633 L 22.181337 0.000864633 " stroke="#fda911" stroke-width="1" stroke-opacity="1" stroke-miterlimit="4"/><path stroke-linecap="butt" transform="matrix(0.000000000000000133, -2.176593, 2.165923, 0.000000000000000133, 21.216549, 98.456096)" fill="none" stroke-linejoin="miter" d="M -0.000429502 -0.000787274 L 14.500446 -0.000787274 " stroke="#fda911" stroke-width="1" stroke-opacity="1" stroke-miterlimit="4"/><path stroke-linecap="butt" transform="matrix(0.000000000000000133, -2.176593, 2.165923, 0.000000000000000133, 68.022685, 98.456096)" fill="none" stroke-linejoin="miter" d="M -0.000429502 0.000347435 L 14.500446 0.000347435 " stroke="#fda911" stroke-width="1" stroke-opacity="1" stroke-miterlimit="4"/><path stroke-linecap="butt" transform="matrix(1.506801, -1.562859, 1.559248, 1.503319, 14.952171, 67.667433)" fill="none" stroke-linejoin="miter" d="M 0.00012724 0.00048856 L 20.241057 0.00109811 " stroke="#fda911" stroke-width="1" stroke-opacity="1" stroke-miterlimit="4"/><path stroke-linecap="butt" transform="matrix(-1.522537, -1.522537, 1.531539, -1.531539, 60.905208, 53.44279)" fill="none" stroke-linejoin="miter" d="M 0.000112377 0.00079211 L 10.635884 -0.000483159 " stroke="#fda911" stroke-width="1" stroke-opacity="1" stroke-miterlimit="4"/><path stroke-linecap="butt" transform="matrix(0.000000000000000131, -2.134591, 2.165923, 0.000000000000000133, 61.049105, 53.865046)" fill="none" stroke-linejoin="miter" d="M 0.000826621 0.000773756 L 4.786213 0.000773756 " stroke="#fda911" stroke-width="1" stroke-opacity="1" stroke-miterlimit="4"/><path stroke-linecap="butt" transform="matrix(-0.000000000000001781, -2.154081, 2.165923, -0.000000000000001791, 67.402481, 60.303774)" fill="none" stroke-linejoin="miter" d="M -0.000424303 -0.0000634879 L 7.757381 -0.0000634879 " stroke="#fda911" stroke-width="1" stroke-opacity="1" stroke-miterlimit="4"/><path stroke-linecap="butt" transform="matrix(-2.208717, -0.00000000000000027, 0.000000000000000265, -2.165923, 68.018226, 43.81142)" fill="none" stroke-linejoin="miter" d="M -0.000590752 -0.00049858 L 3.504696 -0.00049858 " stroke="#fda911" stroke-width="1" stroke-opacity="1" stroke-miterlimit="4"/><path stroke-linecap="butt" transform="matrix(-1.413765, -1.602123, 1.624027, -1.433094, 73.87698, 67.483232)" fill="none" stroke-linejoin="miter" d="M -0.000997607 0.000317439 L 4.635936 0.000839332 " stroke="#fda911" stroke-width="1" stroke-opacity="1" stroke-miterlimit="4"/><path stroke-linecap="butt" transform="matrix(-2.172997, -0.000000000000000266, 0.000000000000000265, -2.165923, 74.341571, 67.484547)" fill="none" stroke-linejoin="miter" d="M 0.000795017 0.0000793706 L 3.418095 0.0000793706 " stroke="#fda911" stroke-width="1" stroke-opacity="1" stroke-miterlimit="4"/><path stroke-linecap="butt" transform="matrix(-2.135229, -0.000000000000000261, 0.000000000000000265, -2.165923, 22.299025, 67.669041)" fill="none" stroke-linejoin="miter" d="M -0.000822399 0.000494921 L 3.623276 0.000494921 " stroke="#fda911" stroke-width="1" stroke-opacity="1" stroke-miterlimit="4"/></svg>